<?xml version="1.0" encoding="UTF-8" standalone="no"?>
<!DOCTYPE svg PUBLIC "-//W3C//DTD SVG 1.1//EN"
 "http://www.w3.org/Graphics/SVG/1.1/DTD/svg11.dtd">
<!-- Generated by graphviz version 2.26.3 (20100126.1600)
 -->
<!-- Title: controllers_diagram Pages: 1 -->
<svg width="828pt" height="664pt"
 viewBox="0.00 0.00 828.00 664.00" xmlns="http://www.w3.org/2000/svg" xmlns:xlink="http://www.w3.org/1999/xlink">
<g id="graph1" class="graph" transform="scale(1 1) rotate(0) translate(4 660)">
<title>controllers_diagram</title>
<polygon fill="white" stroke="white" points="-4,5 -4,-660 825,-660 825,5 -4,5"/>
<!-- _diagram_info -->
<g id="node1" class="node"><title>_diagram_info</title>
<text text-anchor="start" x="408" y="-97.3" font-family="Times Roman,serif" font-size="13.00">Controllers diagram</text>
<text text-anchor="start" x="408" y="-80.3" font-family="Times Roman,serif" font-size="13.00">Date: Oct 25 2012 &#45; 00:37</text>
<text text-anchor="start" x="408" y="-63.3" font-family="Times Roman,serif" font-size="13.00">Migration version: 20121020050735</text>
<text text-anchor="start" x="408" y="-46.3" font-family="Times Roman,serif" font-size="13.00">Generated by RailRoady 1.0.8</text>
<text text-anchor="start" x="408" y="-29.3" font-family="Times Roman,serif" font-size="13.00">http://railroady.prestonlee.com</text>
</g>
<!-- MessagesController -->
<g id="node2" class="node"><title>MessagesController</title>
<polyline fill="none" stroke="black" points="222,-381.5 349,-381.5 "/>
<path fill="none" stroke="black" d="M349,-381.5C355,-381.5 361,-387.5 361,-393.5"/>
<polyline fill="none" stroke="black" points="361,-393.5 361,-579.5 "/>
<path fill="none" stroke="black" d="M361,-579.5C361,-585.5 355,-591.5 349,-591.5"/>
<polyline fill="none" stroke="black" points="349,-591.5 222,-591.5 "/>
<path fill="none" stroke="black" d="M222,-591.5C216,-591.5 210,-585.5 210,-579.5"/>
<polyline fill="none" stroke="black" points="210,-579.5 210,-393.5 "/>
<path fill="none" stroke="black" d="M210,-393.5C210,-387.5 216,-381.5 222,-381.5"/>
<text text-anchor="middle" x="285.5" y="-574.9" font-family="Times Roman,serif" font-size="14.00">MessagesController</text>
<polyline fill="none" stroke="black" points="210,-565.5 361,-565.5 "/>
<text text-anchor="start" x="218" y="-548.9" font-family="Times Roman,serif" font-size="14.00">create</text>
<text text-anchor="start" x="218" y="-530.9" font-family="Times Roman,serif" font-size="14.00">destroy</text>
<text text-anchor="start" x="218" y="-512.9" font-family="Times Roman,serif" font-size="14.00">edit</text>
<text text-anchor="start" x="218" y="-494.9" font-family="Times Roman,serif" font-size="14.00">index</text>
<text text-anchor="start" x="218" y="-476.9" font-family="Times Roman,serif" font-size="14.00">new</text>
<text text-anchor="start" x="218" y="-458.9" font-family="Times Roman,serif" font-size="14.00">show</text>
<text text-anchor="start" x="218" y="-440.9" font-family="Times Roman,serif" font-size="14.00">update</text>
<polyline fill="none" stroke="black" points="210,-431.5 361,-431.5 "/>
<polyline fill="none" stroke="black" points="210,-407.5 361,-407.5 "/>
<text text-anchor="start" x="218" y="-390.9" font-family="Times Roman,serif" font-size="14.00">_layout</text>
</g>
<!-- HomeController -->
<g id="node3" class="node"><title>HomeController</title>
<polyline fill="none" stroke="black" points="222,-1.5 323,-1.5 "/>
<path fill="none" stroke="black" d="M323,-1.5C329,-1.5 335,-7.5 335,-13.5"/>
<polyline fill="none" stroke="black" points="335,-13.5 335,-91.5 "/>
<path fill="none" stroke="black" d="M335,-91.5C335,-97.5 329,-103.5 323,-103.5"/>
<polyline fill="none" stroke="black" points="323,-103.5 222,-103.5 "/>
<path fill="none" stroke="black" d="M222,-103.5C216,-103.5 210,-97.5 210,-91.5"/>
<polyline fill="none" stroke="black" points="210,-91.5 210,-13.5 "/>
<path fill="none" stroke="black" d="M210,-13.5C210,-7.5 216,-1.5 222,-1.5"/>
<text text-anchor="middle" x="272.5" y="-86.9" font-family="Times Roman,serif" font-size="14.00">HomeController</text>
<polyline fill="none" stroke="black" points="210,-77.5 335,-77.5 "/>
<text text-anchor="start" x="218" y="-60.9" font-family="Times Roman,serif" font-size="14.00">index</text>
<polyline fill="none" stroke="black" points="210,-51.5 335,-51.5 "/>
<polyline fill="none" stroke="black" points="210,-27.5 335,-27.5 "/>
<text text-anchor="start" x="218" y="-10.9" font-family="Times Roman,serif" font-size="14.00">_layout</text>
</g>
<!-- AnimalsController -->
<g id="node4" class="node"><title>AnimalsController</title>
<polyline fill="none" stroke="black" points="469,-400.5 585,-400.5 "/>
<path fill="none" stroke="black" d="M585,-400.5C591,-400.5 597,-406.5 597,-412.5"/>
<polyline fill="none" stroke="black" points="597,-412.5 597,-598.5 "/>
<path fill="none" stroke="black" d="M597,-598.5C597,-604.5 591,-610.5 585,-610.5"/>
<polyline fill="none" stroke="black" points="585,-610.5 469,-610.5 "/>
<path fill="none" stroke="black" d="M469,-610.5C463,-610.5 457,-604.5 457,-598.5"/>
<polyline fill="none" stroke="black" points="457,-598.5 457,-412.5 "/>
<path fill="none" stroke="black" d="M457,-412.5C457,-406.5 463,-400.5 469,-400.5"/>
<text text-anchor="middle" x="527" y="-593.9" font-family="Times Roman,serif" font-size="14.00">AnimalsController</text>
<polyline fill="none" stroke="black" points="457,-584.5 597,-584.5 "/>
<text text-anchor="start" x="465" y="-567.9" font-family="Times Roman,serif" font-size="14.00">create</text>
<text text-anchor="start" x="465" y="-549.9" font-family="Times Roman,serif" font-size="14.00">destroy</text>
<text text-anchor="start" x="465" y="-531.9" font-family="Times Roman,serif" font-size="14.00">edit</text>
<text text-anchor="start" x="465" y="-513.9" font-family="Times Roman,serif" font-size="14.00">index</text>
<text text-anchor="start" x="465" y="-495.9" font-family="Times Roman,serif" font-size="14.00">new</text>
<text text-anchor="start" x="465" y="-477.9" font-family="Times Roman,serif" font-size="14.00">show</text>
<text text-anchor="start" x="465" y="-459.9" font-family="Times Roman,serif" font-size="14.00">update</text>
<polyline fill="none" stroke="black" points="457,-450.5 597,-450.5 "/>
<polyline fill="none" stroke="black" points="457,-426.5 597,-426.5 "/>
<text text-anchor="start" x="465" y="-409.9" font-family="Times Roman,serif" font-size="14.00">_layout</text>
</g>
<!-- ApplicationController -->
<g id="node5" class="node"><title>ApplicationController</title>
<polyline fill="none" stroke="black" points="602,-153.5 807,-153.5 "/>
<path fill="none" stroke="black" d="M807,-153.5C813,-153.5 819,-159.5 819,-165.5"/>
<polyline fill="none" stroke="black" points="819,-165.5 819,-243.5 "/>
<path fill="none" stroke="black" d="M819,-243.5C819,-249.5 813,-255.5 807,-255.5"/>
<polyline fill="none" stroke="black" points="807,-255.5 602,-255.5 "/>
<path fill="none" stroke="black" d="M602,-255.5C596,-255.5 590,-249.5 590,-243.5"/>
<polyline fill="none" stroke="black" points="590,-243.5 590,-165.5 "/>
<path fill="none" stroke="black" d="M590,-165.5C590,-159.5 596,-153.5 602,-153.5"/>
<text text-anchor="middle" x="704.5" y="-238.9" font-family="Times Roman,serif" font-size="14.00">ApplicationController</text>
<polyline fill="none" stroke="black" points="590,-229.5 819,-229.5 "/>
<text text-anchor="start" x="598" y="-212.9" font-family="Times Roman,serif" font-size="14.00">_one_time_conditions_valid_8?</text>
<polyline fill="none" stroke="black" points="590,-203.5 819,-203.5 "/>
<polyline fill="none" stroke="black" points="590,-179.5 819,-179.5 "/>
<text text-anchor="start" x="598" y="-162.9" font-family="Times Roman,serif" font-size="14.00">_layout</text>
</g>
<!-- DoorsController -->
<g id="node6" class="node"><title>DoorsController</title>
<polyline fill="none" stroke="black" points="51,-248.5 153,-248.5 "/>
<path fill="none" stroke="black" d="M153,-248.5C159,-248.5 165,-254.5 165,-260.5"/>
<polyline fill="none" stroke="black" points="165,-260.5 165,-446.5 "/>
<path fill="none" stroke="black" d="M165,-446.5C165,-452.5 159,-458.5 153,-458.5"/>
<polyline fill="none" stroke="black" points="153,-458.5 51,-458.5 "/>
<path fill="none" stroke="black" d="M51,-458.5C45,-458.5 39,-452.5 39,-446.5"/>
<polyline fill="none" stroke="black" points="39,-446.5 39,-260.5 "/>
<path fill="none" stroke="black" d="M39,-260.5C39,-254.5 45,-248.5 51,-248.5"/>
<text text-anchor="middle" x="102" y="-441.9" font-family="Times Roman,serif" font-size="14.00">DoorsController</text>
<polyline fill="none" stroke="black" points="39,-432.5 165,-432.5 "/>
<text text-anchor="start" x="47" y="-415.9" font-family="Times Roman,serif" font-size="14.00">create</text>
<text text-anchor="start" x="47" y="-397.9" font-family="Times Roman,serif" font-size="14.00">destroy</text>
<text text-anchor="start" x="47" y="-379.9" font-family="Times Roman,serif" font-size="14.00">edit</text>
<text text-anchor="start" x="47" y="-361.9" font-family="Times Roman,serif" font-size="14.00">index</text>
<text text-anchor="start" x="47" y="-343.9" font-family="Times Roman,serif" font-size="14.00">new</text>
<text text-anchor="start" x="47" y="-325.9" font-family="Times Roman,serif" font-size="14.00">show</text>
<text text-anchor="start" x="47" y="-307.9" font-family="Times Roman,serif" font-size="14.00">update</text>
<polyline fill="none" stroke="black" points="39,-298.5 165,-298.5 "/>
<polyline fill="none" stroke="black" points="39,-274.5 165,-274.5 "/>
<text text-anchor="start" x="47" y="-257.9" font-family="Times Roman,serif" font-size="14.00">_layout</text>
</g>
<!-- CagesController -->
<g id="node7" class="node"><title>CagesController</title>
<polyline fill="none" stroke="black" points="51,-1.5 154,-1.5 "/>
<path fill="none" stroke="black" d="M154,-1.5C160,-1.5 166,-7.5 166,-13.5"/>
<polyline fill="none" stroke="black" points="166,-13.5 166,-199.5 "/>
<path fill="none" stroke="black" d="M166,-199.5C166,-205.5 160,-211.5 154,-211.5"/>
<polyline fill="none" stroke="black" points="154,-211.5 51,-211.5 "/>
<path fill="none" stroke="black" d="M51,-211.5C45,-211.5 39,-205.5 39,-199.5"/>
<polyline fill="none" stroke="black" points="39,-199.5 39,-13.5 "/>
<path fill="none" stroke="black" d="M39,-13.5C39,-7.5 45,-1.5 51,-1.5"/>
<text text-anchor="middle" x="102.5" y="-194.9" font-family="Times Roman,serif" font-size="14.00">CagesController</text>
<polyline fill="none" stroke="black" points="39,-185.5 166,-185.5 "/>
<text text-anchor="start" x="47" y="-168.9" font-family="Times Roman,serif" font-size="14.00">create</text>
<text text-anchor="start" x="47" y="-150.9" font-family="Times Roman,serif" font-size="14.00">destroy</text>
<text text-anchor="start" x="47" y="-132.9" font-family="Times Roman,serif" font-size="14.00">edit</text>
<text text-anchor="start" x="47" y="-114.9" font-family="Times Roman,serif" font-size="14.00">index</text>
<text text-anchor="start" x="47" y="-96.9" font-family="Times Roman,serif" font-size="14.00">new</text>
<text text-anchor="start" x="47" y="-78.9" font-family="Times Roman,serif" font-size="14.00">show</text>
<text text-anchor="start" x="47" y="-60.9" font-family="Times Roman,serif" font-size="14.00">update</text>
<polyline fill="none" stroke="black" points="39,-51.5 166,-51.5 "/>
<polyline fill="none" stroke="black" points="39,-27.5 166,-27.5 "/>
<text text-anchor="start" x="47" y="-10.9" font-family="Times Roman,serif" font-size="14.00">_layout</text>
</g>
<!-- EmployeesController -->
<g id="node8" class="node"><title>EmployeesController</title>
<polyline fill="none" stroke="black" points="222,-134.5 357,-134.5 "/>
<path fill="none" stroke="black" d="M357,-134.5C363,-134.5 369,-140.5 369,-146.5"/>
<polyline fill="none" stroke="black" points="369,-146.5 369,-332.5 "/>
<path fill="none" stroke="black" d="M369,-332.5C369,-338.5 363,-344.5 357,-344.5"/>
<polyline fill="none" stroke="black" points="357,-344.5 222,-344.5 "/>
<path fill="none" stroke="black" d="M222,-344.5C216,-344.5 210,-338.5 210,-332.5"/>
<polyline fill="none" stroke="black" points="210,-332.5 210,-146.5 "/>
<path fill="none" stroke="black" d="M210,-146.5C210,-140.5 216,-134.5 222,-134.5"/>
<text text-anchor="middle" x="289.5" y="-327.9" font-family="Times Roman,serif" font-size="14.00">EmployeesController</text>
<polyline fill="none" stroke="black" points="210,-318.5 369,-318.5 "/>
<text text-anchor="start" x="218" y="-301.9" font-family="Times Roman,serif" font-size="14.00">create</text>
<text text-anchor="start" x="218" y="-283.9" font-family="Times Roman,serif" font-size="14.00">destroy</text>
<text text-anchor="start" x="218" y="-265.9" font-family="Times Roman,serif" font-size="14.00">edit</text>
<text text-anchor="start" x="218" y="-247.9" font-family="Times Roman,serif" font-size="14.00">index</text>
<text text-anchor="start" x="218" y="-229.9" font-family="Times Roman,serif" font-size="14.00">new</text>
<text text-anchor="start" x="218" y="-211.9" font-family="Times Roman,serif" font-size="14.00">show</text>
<text text-anchor="start" x="218" y="-193.9" font-family="Times Roman,serif" font-size="14.00">update</text>
<polyline fill="none" stroke="black" points="210,-184.5 369,-184.5 "/>
<polyline fill="none" stroke="black" points="210,-160.5 369,-160.5 "/>
<text text-anchor="start" x="218" y="-143.9" font-family="Times Roman,serif" font-size="14.00">_layout</text>
</g>
<!-- EntrancesController -->
<g id="node9" class="node"><title>EntrancesController</title>
<polyline fill="none" stroke="black" points="412,-153.5 543,-153.5 "/>
<path fill="none" stroke="black" d="M543,-153.5C549,-153.5 555,-159.5 555,-165.5"/>
<polyline fill="none" stroke="black" points="555,-165.5 555,-351.5 "/>
<path fill="none" stroke="black" d="M555,-351.5C555,-357.5 549,-363.5 543,-363.5"/>
<polyline fill="none" stroke="black" points="543,-363.5 412,-363.5 "/>
<path fill="none" stroke="black" d="M412,-363.5C406,-363.5 400,-357.5 400,-351.5"/>
<polyline fill="none" stroke="black" points="400,-351.5 400,-165.5 "/>
<path fill="none" stroke="black" d="M400,-165.5C400,-159.5 406,-153.5 412,-153.5"/>
<text text-anchor="middle" x="477.5" y="-346.9" font-family="Times Roman,serif" font-size="14.00">EntrancesController</text>
<polyline fill="none" stroke="black" points="400,-337.5 555,-337.5 "/>
<text text-anchor="start" x="408" y="-320.9" font-family="Times Roman,serif" font-size="14.00">create</text>
<text text-anchor="start" x="408" y="-302.9" font-family="Times Roman,serif" font-size="14.00">destroy</text>
<text text-anchor="start" x="408" y="-284.9" font-family="Times Roman,serif" font-size="14.00">edit</text>
<text text-anchor="start" x="408" y="-266.9" font-family="Times Roman,serif" font-size="14.00">index</text>
<text text-anchor="start" x="408" y="-248.9" font-family="Times Roman,serif" font-size="14.00">new</text>
<text text-anchor="start" x="408" y="-230.9" font-family="Times Roman,serif" font-size="14.00">show</text>
<text text-anchor="start" x="408" y="-212.9" font-family="Times Roman,serif" font-size="14.00">update</text>
<polyline fill="none" stroke="black" points="400,-203.5 555,-203.5 "/>
<polyline fill="none" stroke="black" points="400,-179.5 555,-179.5 "/>
<text text-anchor="start" x="408" y="-162.9" font-family="Times Roman,serif" font-size="14.00">_layout</text>
</g>
<!-- ZooSetupUiController -->
<g id="node10" class="node"><title>ZooSetupUiController</title>
<polyline fill="none" stroke="black" points="13,-552.5 156,-552.5 "/>
<path fill="none" stroke="black" d="M156,-552.5C162,-552.5 168,-558.5 168,-564.5"/>
<polyline fill="none" stroke="black" points="168,-564.5 168,-642.5 "/>
<path fill="none" stroke="black" d="M168,-642.5C168,-648.5 162,-654.5 156,-654.5"/>
<polyline fill="none" stroke="black" points="156,-654.5 13,-654.5 "/>
<path fill="none" stroke="black" d="M13,-654.5C7,-654.5 1,-648.5 1,-642.5"/>
<polyline fill="none" stroke="black" points="1,-642.5 1,-564.5 "/>
<path fill="none" stroke="black" d="M1,-564.5C1,-558.5 7,-552.5 13,-552.5"/>
<text text-anchor="middle" x="84.5" y="-637.9" font-family="Times Roman,serif" font-size="14.00">ZooSetupUiController</text>
<polyline fill="none" stroke="black" points="1,-628.5 168,-628.5 "/>
<text text-anchor="start" x="9" y="-611.9" font-family="Times Roman,serif" font-size="14.00">index</text>
<polyline fill="none" stroke="black" points="1,-602.5 168,-602.5 "/>
<polyline fill="none" stroke="black" points="1,-578.5 168,-578.5 "/>
<text text-anchor="start" x="9" y="-561.9" font-family="Times Roman,serif" font-size="14.00">_layout</text>
</g>
</g>
</svg>
