<?xml version="1.0" encoding="UTF-8" standalone="no"?>
<!DOCTYPE svg PUBLIC "-//W3C//DTD SVG 1.1//EN"
 "http://www.w3.org/Graphics/SVG/1.1/DTD/svg11.dtd">
<!-- Generated by graphviz version 2.26.3 (20100126.1600)
 -->
<!-- Title: models_diagram Pages: 1 -->
<svg width="619pt" height="494pt"
 viewBox="0.00 0.00 619.00 494.00" xmlns="http://www.w3.org/2000/svg" xmlns:xlink="http://www.w3.org/1999/xlink">
<g id="graph1" class="graph" transform="scale(1 1) rotate(0) translate(4 490)">
<title>models_diagram</title>
<polygon fill="white" stroke="white" points="-4,5 -4,-490 616,-490 616,5 -4,5"/>
<!-- _diagram_info -->
<g id="node1" class="node"><title>_diagram_info</title>
<text text-anchor="start" x="8" y="-417.8" font-family="Times Roman,serif" font-size="13.00">Models diagram</text>
<text text-anchor="start" x="8" y="-400.8" font-family="Times Roman,serif" font-size="13.00">Date: Oct 25 2012 &#45; 00:37</text>
<text text-anchor="start" x="8" y="-383.8" font-family="Times Roman,serif" font-size="13.00">Migration version: 20121020050735</text>
<text text-anchor="start" x="8" y="-366.8" font-family="Times Roman,serif" font-size="13.00">Generated by RailRoady 1.0.8</text>
<text text-anchor="start" x="8" y="-349.8" font-family="Times Roman,serif" font-size="13.00">http://railroady.prestonlee.com</text>
</g>
<!-- Entrance -->
<g id="node2" class="node"><title>Entrance</title>
<polyline fill="none" stroke="black" points="176,-163 278,-163 "/>
<path fill="none" stroke="black" d="M278,-163C284,-163 290,-169 290,-175"/>
<polyline fill="none" stroke="black" points="290,-175 290,-221 "/>
<path fill="none" stroke="black" d="M290,-221C290,-227 284,-233 278,-233"/>
<polyline fill="none" stroke="black" points="278,-233 176,-233 "/>
<path fill="none" stroke="black" d="M176,-233C170,-233 164,-227 164,-221"/>
<polyline fill="none" stroke="black" points="164,-221 164,-175 "/>
<path fill="none" stroke="black" d="M164,-175C164,-169 170,-163 176,-163"/>
<text text-anchor="middle" x="227" y="-216.4" font-family="Times Roman,serif" font-size="14.00">Entrance</text>
<polyline fill="none" stroke="black" points="164,-207 290,-207 "/>
<text text-anchor="start" x="172" y="-190.4" font-family="Times Roman,serif" font-size="14.00">id :integer</text>
<text text-anchor="start" x="172" y="-172.4" font-family="Times Roman,serif" font-size="14.00">cage_id :integer</text>
</g>
<!-- Door -->
<g id="node5" class="node"><title>Door</title>
<polyline fill="none" stroke="black" points="161,-1 293,-1 "/>
<path fill="none" stroke="black" d="M293,-1C299,-1 305,-7 305,-13"/>
<polyline fill="none" stroke="black" points="305,-13 305,-95 "/>
<path fill="none" stroke="black" d="M305,-95C305,-101 299,-107 293,-107"/>
<polyline fill="none" stroke="black" points="293,-107 161,-107 "/>
<path fill="none" stroke="black" d="M161,-107C155,-107 149,-101 149,-95"/>
<polyline fill="none" stroke="black" points="149,-95 149,-13 "/>
<path fill="none" stroke="black" d="M149,-13C149,-7 155,-1 161,-1"/>
<text text-anchor="middle" x="227" y="-90.4" font-family="Times Roman,serif" font-size="14.00">Door</text>
<polyline fill="none" stroke="black" points="149,-81 305,-81 "/>
<text text-anchor="start" x="157" y="-64.4" font-family="Times Roman,serif" font-size="14.00">id :integer</text>
<text text-anchor="start" x="157" y="-46.4" font-family="Times Roman,serif" font-size="14.00">open :boolean</text>
<text text-anchor="start" x="157" y="-28.4" font-family="Times Roman,serif" font-size="14.00">locked :boolean</text>
<text text-anchor="start" x="157" y="-10.4" font-family="Times Roman,serif" font-size="14.00">entrance_id :integer</text>
</g>
<!-- Entrance&#45;&gt;Door -->
<g id="edge2" class="edge"><title>Entrance&#45;&gt;Door</title>
<path fill="none" stroke="#8f3fd6" d="M227,-154.684C227,-142.876 227,-129.837 227,-117.169"/>
<ellipse fill="none" stroke="#8f3fd6" cx="227" cy="-158.774" rx="4" ry="4"/>
<polygon fill="#8f3fd6" stroke="#8f3fd6" points="227,-117.119 231.5,-107.119 227,-112.119 227,-107.119 227,-107.119 227,-107.119 227,-112.119 222.5,-107.119 227,-117.119 227,-117.119"/>
</g>
<!-- Message -->
<g id="node3" class="node"><title>Message</title>
<polyline fill="none" stroke="black" points="462.5,-10 599.5,-10 "/>
<path fill="none" stroke="black" d="M599.5,-10C605.5,-10 611.5,-16 611.5,-22"/>
<polyline fill="none" stroke="black" points="611.5,-22 611.5,-86 "/>
<path fill="none" stroke="black" d="M611.5,-86C611.5,-92 605.5,-98 599.5,-98"/>
<polyline fill="none" stroke="black" points="599.5,-98 462.5,-98 "/>
<path fill="none" stroke="black" d="M462.5,-98C456.5,-98 450.5,-92 450.5,-86"/>
<polyline fill="none" stroke="black" points="450.5,-86 450.5,-22 "/>
<path fill="none" stroke="black" d="M450.5,-22C450.5,-16 456.5,-10 462.5,-10"/>
<text text-anchor="middle" x="531" y="-81.4" font-family="Times Roman,serif" font-size="14.00">Message</text>
<polyline fill="none" stroke="black" points="450.5,-72 611.5,-72 "/>
<text text-anchor="start" x="458.5" y="-55.4" font-family="Times Roman,serif" font-size="14.00">id :integer</text>
<text text-anchor="start" x="458.5" y="-37.4" font-family="Times Roman,serif" font-size="14.00">employee_id :integer</text>
<text text-anchor="start" x="458.5" y="-19.4" font-family="Times Roman,serif" font-size="14.00">message :text</text>
</g>
<!-- Animal -->
<g id="node4" class="node"><title>Animal</title>
<polyline fill="none" stroke="black" points="319.5,-145 426.5,-145 "/>
<path fill="none" stroke="black" d="M426.5,-145C432.5,-145 438.5,-151 438.5,-157"/>
<polyline fill="none" stroke="black" points="438.5,-157 438.5,-239 "/>
<path fill="none" stroke="black" d="M438.5,-239C438.5,-245 432.5,-251 426.5,-251"/>
<polyline fill="none" stroke="black" points="426.5,-251 319.5,-251 "/>
<path fill="none" stroke="black" d="M319.5,-251C313.5,-251 307.5,-245 307.5,-239"/>
<polyline fill="none" stroke="black" points="307.5,-239 307.5,-157 "/>
<path fill="none" stroke="black" d="M307.5,-157C307.5,-151 313.5,-145 319.5,-145"/>
<text text-anchor="middle" x="373" y="-234.4" font-family="Times Roman,serif" font-size="14.00">Animal</text>
<polyline fill="none" stroke="black" points="307.5,-225 438.5,-225 "/>
<text text-anchor="start" x="315.5" y="-208.4" font-family="Times Roman,serif" font-size="14.00">id :integer</text>
<text text-anchor="start" x="315.5" y="-190.4" font-family="Times Roman,serif" font-size="14.00">animal_id :string</text>
<text text-anchor="start" x="315.5" y="-172.4" font-family="Times Roman,serif" font-size="14.00">name :string</text>
<text text-anchor="start" x="315.5" y="-154.4" font-family="Times Roman,serif" font-size="14.00">cage_id :integer</text>
</g>
<!-- Employee -->
<g id="node6" class="node"><title>Employee</title>
<polyline fill="none" stroke="black" points="467.5,-145 594.5,-145 "/>
<path fill="none" stroke="black" d="M594.5,-145C600.5,-145 606.5,-151 606.5,-157"/>
<polyline fill="none" stroke="black" points="606.5,-157 606.5,-239 "/>
<path fill="none" stroke="black" d="M606.5,-239C606.5,-245 600.5,-251 594.5,-251"/>
<polyline fill="none" stroke="black" points="594.5,-251 467.5,-251 "/>
<path fill="none" stroke="black" d="M467.5,-251C461.5,-251 455.5,-245 455.5,-239"/>
<polyline fill="none" stroke="black" points="455.5,-239 455.5,-157 "/>
<path fill="none" stroke="black" d="M455.5,-157C455.5,-151 461.5,-145 467.5,-145"/>
<text text-anchor="middle" x="531" y="-234.4" font-family="Times Roman,serif" font-size="14.00">Employee</text>
<polyline fill="none" stroke="black" points="455.5,-225 606.5,-225 "/>
<text text-anchor="start" x="463.5" y="-208.4" font-family="Times Roman,serif" font-size="14.00">id :integer</text>
<text text-anchor="start" x="463.5" y="-190.4" font-family="Times Roman,serif" font-size="14.00">employee_id :string</text>
<text text-anchor="start" x="463.5" y="-172.4" font-family="Times Roman,serif" font-size="14.00">name :string</text>
<text text-anchor="start" x="463.5" y="-154.4" font-family="Times Roman,serif" font-size="14.00">cage_id :integer</text>
</g>
<!-- Employee&#45;&gt;Message -->
<g id="edge4" class="edge"><title>Employee&#45;&gt;Message</title>
<path fill="none" stroke="#aeb312" d="M531,-136.764C531,-127.309 531,-117.6 531,-108.311"/>
<ellipse fill="none" stroke="#aeb312" cx="531" cy="-140.789" rx="4" ry="4"/>
<polygon fill="#aeb312" stroke="#aeb312" points="531,-108.036 535.5,-98.0362 531,-103.036 531,-98.0362 531,-98.0362 531,-98.0362 531,-103.036 526.5,-98.0363 531,-108.036 531,-108.036"/>
</g>
<!-- Cage -->
<g id="node7" class="node"><title>Cage</title>
<polyline fill="none" stroke="black" points="280,-289 466,-289 "/>
<path fill="none" stroke="black" d="M466,-289C472,-289 478,-295 478,-301"/>
<polyline fill="none" stroke="black" points="478,-301 478,-473 "/>
<path fill="none" stroke="black" d="M478,-473C478,-479 472,-485 466,-485"/>
<polyline fill="none" stroke="black" points="466,-485 280,-485 "/>
<path fill="none" stroke="black" d="M280,-485C274,-485 268,-479 268,-473"/>
<polyline fill="none" stroke="black" points="268,-473 268,-301 "/>
<path fill="none" stroke="black" d="M268,-301C268,-295 274,-289 280,-289"/>
<text text-anchor="middle" x="373" y="-468.4" font-family="Times Roman,serif" font-size="14.00">Cage</text>
<polyline fill="none" stroke="black" points="268,-459 478,-459 "/>
<text text-anchor="start" x="276" y="-442.4" font-family="Times Roman,serif" font-size="14.00">id :integer</text>
<text text-anchor="start" x="276" y="-424.4" font-family="Times Roman,serif" font-size="14.00">size :float</text>
<text text-anchor="start" x="276" y="-406.4" font-family="Times Roman,serif" font-size="14.00">category :string</text>
<text text-anchor="start" x="276" y="-388.4" font-family="Times Roman,serif" font-size="14.00">name :string</text>
<text text-anchor="start" x="276" y="-370.4" font-family="Times Roman,serif" font-size="14.00">lights_on :boolean</text>
<text text-anchor="start" x="276" y="-352.4" font-family="Times Roman,serif" font-size="14.00">latitude :float</text>
<text text-anchor="start" x="276" y="-334.4" font-family="Times Roman,serif" font-size="14.00">longitude :float</text>
<text text-anchor="start" x="276" y="-316.4" font-family="Times Roman,serif" font-size="14.00">date_last_fed :datetime</text>
<text text-anchor="start" x="276" y="-298.4" font-family="Times Roman,serif" font-size="14.00">date_last_cleaned :datetime</text>
</g>
<!-- Cage&#45;&gt;Entrance -->
<g id="edge6" class="edge"><title>Cage&#45;&gt;Entrance</title>
<path fill="none" stroke="#4bf244" d="M292.172,-282.367C280.961,-267.854 269.999,-253.663 260.36,-241.186"/>
<ellipse fill="none" stroke="#4bf244" cx="294.775" cy="-285.736" rx="4.00002" ry="4.00002"/>
<polygon fill="#4bf244" stroke="#4bf244" points="260.341,-241.161 257.789,-230.496 257.285,-237.204 254.228,-233.247 254.228,-233.247 254.228,-233.247 257.285,-237.204 250.667,-235.998 260.341,-241.161 260.341,-241.161"/>
</g>
<!-- Cage&#45;&gt;Animal -->
<g id="edge10" class="edge"><title>Cage&#45;&gt;Animal</title>
<path fill="none" stroke="#3836a5" d="M373,-280.732C373,-274.231 373,-267.804 373,-261.579"/>
<ellipse fill="none" stroke="#3836a5" cx="373" cy="-284.902" rx="4" ry="4"/>
<polygon fill="#3836a5" stroke="#3836a5" points="373,-261.315 377.5,-251.315 373,-256.315 373,-251.315 373,-251.315 373,-251.315 373,-256.315 368.5,-251.315 373,-261.315 373,-261.315"/>
</g>
<!-- Cage&#45;&gt;Employee -->
<g id="edge8" class="edge"><title>Cage&#45;&gt;Employee</title>
<path fill="none" stroke="#323e9b" d="M460.324,-282.543C466.938,-274.631 473.473,-266.814 479.741,-259.316"/>
<ellipse fill="none" stroke="#323e9b" cx="457.574" cy="-285.833" rx="4.00002" ry="4.00002"/>
<polygon fill="#323e9b" stroke="#323e9b" points="480.016,-258.988 489.882,-254.202 483.223,-255.151 486.43,-251.315 486.43,-251.315 486.43,-251.315 483.223,-255.151 482.977,-248.429 480.016,-258.988 480.016,-258.988"/>
</g>
</g>
</svg>
