<?xml version="1.0" encoding="UTF-8" standalone="no"?>
<!DOCTYPE svg PUBLIC "-//W3C//DTD SVG 1.1//EN"
 "http://www.w3.org/Graphics/SVG/1.1/DTD/svg11.dtd">
<!-- Generated by graphviz version 2.26.3 (20100126.1600)
 -->
<!-- Title: models_diagram Pages: 1 -->
<svg width="501pt" height="324pt"
 viewBox="0.00 0.00 501.00 324.00" xmlns="http://www.w3.org/2000/svg" xmlns:xlink="http://www.w3.org/1999/xlink">
<g id="graph1" class="graph" transform="scale(1 1) rotate(0) translate(4 320)">
<title>models_diagram</title>
<polygon fill="white" stroke="white" points="-4,5 -4,-320 498,-320 498,5 -4,5"/>
<!-- _diagram_info -->
<g id="node1" class="node"><title>_diagram_info</title>
<text text-anchor="start" x="8" y="-299.8" font-family="Times Roman,serif" font-size="13.00">Models diagram</text>
<text text-anchor="start" x="8" y="-282.8" font-family="Times Roman,serif" font-size="13.00">Date: Oct 25 2012 &#45; 00:37</text>
<text text-anchor="start" x="8" y="-265.8" font-family="Times Roman,serif" font-size="13.00">Migration version: 20121020050735</text>
<text text-anchor="start" x="8" y="-248.8" font-family="Times Roman,serif" font-size="13.00">Generated by RailRoady 1.0.8</text>
<text text-anchor="start" x="8" y="-231.8" font-family="Times Roman,serif" font-size="13.00">http://railroady.prestonlee.com</text>
</g>
<!-- Entrance -->
<g id="node2" class="node"><title>Entrance</title>
<ellipse fill="none" stroke="black" cx="195" cy="-93" rx="55.8614" ry="18.3848"/>
<text text-anchor="middle" x="195" y="-89.4" font-family="Times Roman,serif" font-size="14.00">Entrance</text>
</g>
<!-- Door -->
<g id="node5" class="node"><title>Door</title>
<ellipse fill="none" stroke="black" cx="195" cy="-19" rx="34.8574" ry="18.3848"/>
<text text-anchor="middle" x="195" y="-15.4" font-family="Times Roman,serif" font-size="14.00">Door</text>
</g>
<!-- Entrance&#45;&gt;Door -->
<g id="edge2" class="edge"><title>Entrance&#45;&gt;Door</title>
<path fill="none" stroke="#6696f5" d="M195,-66.309C195,-60.3769 195,-54.0606 195,-48.0396"/>
<ellipse fill="none" stroke="#6696f5" cx="195" cy="-70.3267" rx="4" ry="4"/>
<polygon fill="#6696f5" stroke="#6696f5" points="195,-47.6674 199.5,-37.6673 195,-42.6674 195,-37.6674 195,-37.6674 195,-37.6674 195,-42.6674 190.5,-37.6674 195,-47.6674 195,-47.6674"/>
</g>
<!-- Message -->
<g id="node3" class="node"><title>Message</title>
<ellipse fill="none" stroke="black" cx="435" cy="-19" rx="53.033" ry="18.3848"/>
<text text-anchor="middle" x="435" y="-15.4" font-family="Times Roman,serif" font-size="14.00">Message</text>
</g>
<!-- Animal -->
<g id="node4" class="node"><title>Animal</title>
<ellipse fill="none" stroke="black" cx="314" cy="-93" rx="44.7575" ry="18.3848"/>
<text text-anchor="middle" x="314" y="-89.4" font-family="Times Roman,serif" font-size="14.00">Animal</text>
</g>
<!-- Exhibit -->
<g id="node6" class="node"><title>Exhibit</title>
<ellipse fill="none" stroke="black" cx="314" cy="-269" rx="45.9619" ry="18.3848"/>
<text text-anchor="middle" x="314" y="-265.4" font-family="Times Roman,serif" font-size="14.00">Exhibit</text>
</g>
<!-- Cage -->
<g id="node8" class="node"><title>Cage</title>
<ellipse fill="none" stroke="black" cx="314" cy="-167" rx="36.0624" ry="18.3848"/>
<text text-anchor="middle" x="314" y="-163.4" font-family="Times Roman,serif" font-size="14.00">Cage</text>
</g>
<!-- Exhibit&#45;&gt;Cage -->
<g id="edge4" class="edge"><title>Exhibit&#45;&gt;Cage</title>
<path fill="none" stroke="#832f6f" d="M314,-242.015C314,-227.835 314,-210.445 314,-195.98"/>
<ellipse fill="none" stroke="#832f6f" cx="314" cy="-246.292" rx="4" ry="4"/>
<polygon fill="#832f6f" stroke="#832f6f" points="314,-195.59 318.5,-185.59 314,-190.59 314,-185.59 314,-185.59 314,-185.59 314,-190.59 309.5,-185.59 314,-195.59 314,-195.59"/>
</g>
<!-- Employee -->
<g id="node7" class="node"><title>Employee</title>
<ellipse fill="none" stroke="black" cx="435" cy="-93" rx="58.1882" ry="18.3848"/>
<text text-anchor="middle" x="435" y="-89.4" font-family="Times Roman,serif" font-size="14.00">Employee</text>
</g>
<!-- Employee&#45;&gt;Message -->
<g id="edge6" class="edge"><title>Employee&#45;&gt;Message</title>
<path fill="none" stroke="#5d0315" d="M435,-66.309C435,-60.3769 435,-54.0606 435,-48.0396"/>
<ellipse fill="none" stroke="#5d0315" cx="435" cy="-70.3267" rx="4" ry="4"/>
<polygon fill="#5d0315" stroke="#5d0315" points="435,-47.6674 439.5,-37.6673 435,-42.6674 435,-37.6674 435,-37.6674 435,-37.6674 435,-42.6674 430.5,-37.6674 435,-47.6674 435,-47.6674"/>
</g>
<!-- Cage&#45;&gt;Entrance -->
<g id="edge8" class="edge"><title>Cage&#45;&gt;Entrance</title>
<path fill="none" stroke="#4352cd" d="M284.244,-148.496C267.865,-138.311 247.437,-125.608 230.261,-114.927"/>
<ellipse fill="none" stroke="#4352cd" cx="287.659" cy="-150.62" rx="4.00002" ry="4.00002"/>
<polygon fill="#4352cd" stroke="#4352cd" points="230.105,-114.83 223.99,-105.728 225.859,-112.19 221.613,-109.549 221.613,-109.549 221.613,-109.549 225.859,-112.19 219.237,-113.371 230.105,-114.83 230.105,-114.83"/>
</g>
<!-- Cage&#45;&gt;Animal -->
<g id="edge12" class="edge"><title>Cage&#45;&gt;Animal</title>
<path fill="none" stroke="#13499d" d="M314,-140.309C314,-134.377 314,-128.061 314,-122.04"/>
<ellipse fill="none" stroke="#13499d" cx="314" cy="-144.327" rx="4" ry="4"/>
<polygon fill="#13499d" stroke="#13499d" points="314,-121.667 318.5,-111.667 314,-116.667 314,-111.667 314,-111.667 314,-111.667 314,-116.667 309.5,-111.667 314,-121.667 314,-121.667"/>
</g>
<!-- Cage&#45;&gt;Employee -->
<g id="edge10" class="edge"><title>Cage&#45;&gt;Employee</title>
<path fill="none" stroke="#6eda6c" d="M344.256,-148.496C360.911,-138.311 381.681,-125.608 399.147,-114.927"/>
<ellipse fill="none" stroke="#6eda6c" cx="340.742" cy="-150.645" rx="4.00002" ry="4.00002"/>
<polygon fill="#6eda6c" stroke="#6eda6c" points="399.408,-114.767 410.287,-113.388 403.674,-112.158 407.939,-109.549 407.939,-109.549 407.939,-109.549 403.674,-112.158 405.592,-105.71 399.408,-114.767 399.408,-114.767"/>
</g>
</g>
</svg>
